Coordinates
version=1
nRows=26
nColumns=24
inDegrees=yes

Units are S.I. units (second, meters, Newtons, ...)
Angles are in degrees.

endheader
time	pelvis_tilt	pelvis_list	pelvis_rotation	pelvis_tx	pelvis_ty	pelvis_tz	hip_flexion_r	hip_adduction_r	hip_rotation_r	knee_angle_r	ankle_angle_r	subtalar_angle_r	mtp_angle_r	hip_flexion_l	hip_adduction_l	hip_rotation_l	knee_angle_l	ankle_angle_l	subtalar_angle_l	mtp_angle_l	lumbar_extension	lumbar_bending	lumbar_rotation
      5.17000000	    -10.26321828	     -2.58364020	      8.36574277	     -1.36308947	     -0.03162063	      2.01135268	     34.43982902	     -0.76452949	    -20.56310976	     -8.39292206	     -0.66475789	      5.95426479	     15.81240527	     -3.52897875	      0.21676837	     -5.45689308	    -15.21824115	     11.17828538	      7.78516249	     13.44928376	      4.30011334	      1.09783929	     -9.33630771
      5.18000000	    -10.17041002	     -2.82046987	      8.48537387	     -1.34868487	     -0.03301045	      2.01185850	     34.54552714	     -0.61299016	    -20.52918579	    -10.03975604	     -0.85605668	      4.99724956	     15.97940546	     -3.70916274	     -0.47055509	     -5.33841356	    -16.71731700	     10.75856453	      8.87053455	     13.76293296	      4.43123382	      1.34065230	     -9.53973996
      5.19000000	    -10.09251743	     -3.15489225	      8.49978091	     -1.33399632	     -0.03430839	      2.01262974	     34.56351754	     -0.24168266	    -20.12202082	    -11.57626603	     -1.54723801	      3.62441270	     15.77802866	     -3.77027311	     -1.29215931	     -5.37425874	    -18.38141466	     10.10366593	     10.01349553	     14.29591817	      4.62242943	      1.68553180	     -9.64424213
      5.20000000	     -9.98358828	     -3.56733325	      8.34889181	     -1.31923468	     -0.03528955	      2.01375395	     34.47502934	      0.37359144	    -19.26803145	    -12.98011696	     -2.31625948	      2.16707324	     12.04661777	     -3.78040915	     -2.22793793	     -5.66749715	    -20.05194510	      8.58157602	     10.91745510	     17.75519338	      4.78115438	      2.12667258	     -9.67893104
      5.21000000	     -9.93723009	     -4.17886829	      8.08810755	     -1.30436301	     -0.03598749	      2.01510416	     34.37715707	      1.27273429	    -18.32357324	    -14.10213589	     -3.39418013	      0.70908311	      7.25476813	     -3.52677529	     -3.40392135	     -6.14538657	    -22.03281924	      6.95841387	     11.92269760	     20.15921043	      5.04348146	      2.77488617	     -9.61755540
      5.22000000	     -9.95065309	     -4.89920749	      7.72797939	     -1.28948149	     -0.03635866	      2.01658717	     34.33313700	      2.31057150	    -17.46656498	    -15.06410071	     -4.80500779	     -0.65283755	      3.78996908	     -3.02182822	     -4.71529130	     -6.77838326	    -24.24042124	      4.80560502	     12.77462960	     22.99832749	      5.37616826	      3.54477293	     -9.46455311
      5.23000000	     -9.99467491	     -5.65222591	      7.31910072	     -1.27450188	     -0.03643865	      2.01806712	     34.34874738	      3.36775526	    -16.78240112	    -16.05797166	     -6.27071942	     -1.88715708	      2.14471784	     -2.31076523	     -6.08136826	     -7.51355908	    -26.63696751	      2.02878078	     13.34993383	     26.20836100	      5.75930260	      4.36317187	     -9.36009471
      5.24000000	    -10.04770649	     -6.33052340	      6.90861773	     -1.25952806	     -0.03633818	      2.01954082	     34.39356305	      4.34111206	    -16.23367788	    -17.16150234	     -7.58418522	     -3.15061450	      2.18680723	     -1.40690533	     -7.37538729	     -8.18596485	    -29.19703194	     -1.46203830	     13.47795037	     30.04053085	      6.13972251	      5.10536645	     -9.22620125
      5.25000000	    -10.12200339	     -6.93531959	      6.53692853	     -1.24456790	     -0.03621858	      2.02101354	     34.41865761	      5.23078015	    -15.81597856	    -18.31574612	     -8.47970197	     -4.39926994	      3.51342125	     -0.28495630	     -8.59376583	     -8.69604864	    -31.90554396	     -5.58304021	     13.13281228	     34.53066352	      6.53096772	      5.75064962	     -9.14925467
      5.26000000	    -10.21049146	     -7.54131135	      6.19634733	     -1.22969119	     -0.03616947	      2.02249492	     34.34709056	      6.14132896	    -15.45721351	    -19.37825513	     -8.81649657	     -5.55546767	      5.19904166	      1.05659417	     -9.80255838	     -8.97349999	    -34.78523313	    -10.01723390	     12.37609090	     39.07299628	      6.93173816	      6.38025573	     -9.12241964
      5.27000000	    -10.34727957	     -8.22217211	      5.85822016	     -1.21502448	     -0.03623882	      2.02401026	     34.18605552	      7.16973418	    -15.05958817	    -20.25077829	     -8.58058315	     -6.51992901	      6.30587471	      2.65053727	    -11.04984809	     -8.96064275	    -37.84083679	    -14.45597859	     11.23467453	     43.15657139	      7.36391574	      7.07483822	     -9.07370393
      5.28000000	    -10.64215763	     -9.08938224	      5.52708774	     -1.20068364	     -0.03658950	      2.02554023	     34.07379364	      8.38530160	    -14.71827601	    -20.89408244	     -7.95760297	     -7.26878155	      6.48346041	      4.64996306	    -12.44687251	     -8.66501098	    -41.16083328	    -18.39750258	      9.86173282	     45.87605070	      7.93878953	      7.93414306	     -9.09664401
      5.29000000	    -10.77340006	     -9.90376913	      5.19150538	     -1.18673569	     -0.03662299	      2.02697617	     33.65204320	      9.58596774	    -14.38951377	    -21.33560327	     -7.02345392	     -7.68606180	      6.05442160	      6.53219091	    -13.69228733	     -8.18365633	    -44.37242936	    -22.14642000	      7.84156215	     48.05085465	      8.26206795	      8.76713736	     -9.03520913
      5.30000000	    -10.83095823	    -10.71801120	      4.82898574	     -1.17299310	     -0.03645106	      2.02835490	     33.02625381	     10.80945389	    -14.15416458	    -21.55227361	     -6.05867505	     -7.93559089	      5.51767507	      8.37435871	    -14.86460457	     -7.64676456	    -47.53305506	    -25.08352280	      5.56787292	     48.24009495	      8.46620061	      9.61956444	     -8.88210560
      5.31000000	    -10.75414129	    -11.43098817	      4.50718849	     -1.15943405	     -0.03587895	      2.02963172	     32.13884835	     11.92498693	    -14.06011279	    -21.55783758	     -5.23446376	     -8.11512555	      5.40588725	     10.06628103	    -15.84421152	     -7.06190857	    -50.47400486	    -27.24625164	      3.05943690	     47.44479604	      8.48436670	     10.37679407	     -8.67884106
      5.32000000	    -10.88332908	    -12.02079931	      4.19553865	     -1.14600294	     -0.03545156	      2.03070629	     31.43541401	     12.81000458	    -14.26043757	    -21.54499170	     -4.29434217	     -7.94242135	      5.57009634	     12.04441365	    -16.56251004	     -6.41149000	    -53.42999985	    -27.80610722	      0.75402021	     43.41321365	      8.71454580	     10.99963888	     -8.46788931
      5.33000000	    -10.77185263	    -12.42531182	      4.01745598	     -1.13278098	     -0.03449682	      2.03158753	     30.38723901	     13.45922106	    -14.63973535	    -21.37325593	     -3.59311296	     -7.67841998	      7.21447988	     13.75690673	    -16.97791807	     -5.67082572	    -56.05775573	    -27.41532310	     -1.44610862	     39.43705258	      8.65784826	     11.42758879	     -8.24723377
      5.34000000	    -10.61293268	    -12.69416807	      3.90983720	     -1.11973105	     -0.03332594	      2.03227265	     29.23599124	     13.92133691	    -15.10980175	    -21.11628138	     -3.03658609	     -7.32084069	      9.88535522	     15.42495840	    -17.12752077	     -4.86582922	    -58.38285085	    -26.16852358	     -3.49666221	     35.72734657	      8.53456060	     11.71561177	     -7.99497301
      5.35000000	    -10.39230516	    -12.82071594	      3.84862089	     -1.10678300	     -0.03190794	      2.03284859	     27.93981140	     14.26248813	    -15.33220974	    -20.75736875	     -2.49722998	     -6.99006824	     12.48974790	     16.98845158	    -17.02726781	     -4.04229722	    -60.31056895	    -24.43167363	     -5.29152936	     33.00688322	      8.33675976	     11.85398166	     -7.77036648
      5.36000000	    -10.10973318	    -12.89545523	      3.90881295	     -1.09407077	     -0.03029787	      2.03334184	     26.53081977	     14.56904677	    -15.29177764	    -20.32551374	     -1.74619087	     -6.66212630	     12.93064226	     18.51443783	    -16.77917867	     -3.07834224	    -61.81519070	    -22.77527557	     -6.77803320	     32.63362544	      8.06559299	     11.90862236	     -7.58941630
      5.37000000	     -9.86596066	    -12.87493637	      3.86451549	     -1.08144326	     -0.02865244	      2.03392837	     25.06837590	     14.89515715	    -14.74883027	    -19.75619059	     -1.12644819	     -6.67273695	     13.00178141	     20.01485115	    -16.41326862	     -2.28121114	    -63.02372783	    -20.71351485	     -7.68221667	     31.16699477	      7.80367464	     11.87814209	     -7.25021001
      5.38000000	     -9.64810306	    -12.76786218	      3.86183008	     -1.06900447	     -0.02701402	      2.03447624	     23.59186315	     15.13895614	    -14.02435247	    -19.10842180	     -0.58079473	     -6.81613683	     12.84239794	     21.50997288	    -15.90177639	     -1.45688445	    -63.83665145	    -18.81031932	     -8.14486235	     31.53698757	      7.54980608	     11.74321945	     -6.97419772
      5.39000000	     -9.28856715	    -12.63657253	      3.91489880	     -1.05653253	     -0.02523315	      2.03505561	     21.90670668	     15.40974771	    -13.09708627	    -18.40924299	      0.36139609	     -6.98110290	      9.16428424	     22.78529552	    -15.36356364	     -0.67531606	    -64.24582551	    -17.09591274	     -8.33719986	     33.12419423	      7.16119179	     11.56836956	     -6.64887917
      5.40000000	     -9.07721311	    -12.42265224	      3.99996175	     -1.04426028	     -0.02370843	      2.03548989	     20.38602846	     15.52302675	    -12.30756813	    -17.66260763	      0.98319297	     -7.25225032	      7.41381157	     24.19972042	    -14.66123913	      0.10550771	    -64.37751054	    -15.33145561	     -8.21674712	     34.89127889	      6.91078758	     11.30192066	     -6.43432685
      5.41000000	     -8.89411849	    -12.15268623	      4.09775734	     -1.03203894	     -0.02233619	      2.03578860	     18.89191554	     15.52275699	    -11.70957149	    -16.88625267	      1.40291327	     -7.45979989	      7.12806431	     25.57397415	    -13.85543927	      0.82098304	    -64.24800009	    -13.33252626	     -7.78607234	     35.75492549	      6.68971104	     10.98827368	     -6.23102654
      5.42000000	     -8.53199307	    -11.75674884	      4.25895262	     -1.01984240	     -0.02074286	      2.03611588	     17.16021725	     15.41425441	    -11.02149484	    -16.04638100	      1.88068447	     -7.75259866	      5.71753833	     26.60761332	    -12.92602190	      1.43063956	    -63.63013452	    -11.93774284	     -7.65353692	     38.54378495	      6.27115566	     10.53412691	     -6.06867007
